<svg id="ic-success" xmlns="http://www.w3.org/2000/svg" xmlns:xlink="http://www.w3.org/1999/xlink" width="56.035" height="66.301" viewBox="0 0 56.035 66.301">
  <defs>
    <clipPath id="clip-path">
      <rect id="Rectangle_173" data-name="Rectangle 173" width="56.035" height="66.301" fill="#5252c6"/>
    </clipPath>
  </defs>
  <g id="Group_13264" data-name="Group 13264" clip-path="url(#clip-path)">
    <path id="Path_3124" data-name="Path 3124" d="M28.018,278.818C16.755,278.818,0,277.254,0,272.942c0-1.94,2.845-3.289,9.225-4.375a.767.767,0,1,1,.258,1.511c-7.726,1.316-7.949,2.709-7.949,2.864,0,1.515,9.1,4.342,26.484,4.342S54.5,274.457,54.5,272.942c0-.444-1.465-1.847-8.151-3a.767.767,0,1,1,.261-1.512c9.425,1.628,9.425,3.8,9.425,4.514,0,4.311-16.755,5.876-28.018,5.876" transform="translate(0 -218.478)" fill="#5252c6"/>
    <path id="Path_3125" data-name="Path 3125" d="M28.018,301.224C16.755,301.224,0,299.66,0,295.348v-5.961a.767.767,0,1,1,1.534,0v5.961c0,1.515,9.1,4.342,26.484,4.342S54.5,296.863,54.5,295.348v-5.961a.767.767,0,1,1,1.534,0v5.961c0,4.311-16.755,5.876-28.018,5.876" transform="translate(0 -234.923)" fill="#5252c6"/>
    <path id="Path_3126" data-name="Path 3126" d="M65.271,244.829c-.8,0-19.5-.049-19.5-4.28v-5.8a.767.767,0,0,1,1.534,0v5.8c.318.973,6.6,2.746,17.968,2.746s17.651-1.773,17.971-2.766l0-5.78a.767.767,0,0,1,1.534,0v5.8c0,4.231-18.705,4.28-19.5,4.28" transform="translate(-37.254 -190.45)" fill="#5252c6"/>
    <path id="Path_3127" data-name="Path 3127" d="M65.271,226.784c-6.746,0-19.5-.961-19.5-4.6,0-1.246,1.39-2.235,4.25-3.022a.767.767,0,1,1,.407,1.479c-2.593.714-3.124,1.4-3.124,1.544,0,.917,6.114,3.065,17.968,3.065S83.24,223.1,83.24,222.184c0-.127-.451-.741-2.655-1.408a.767.767,0,1,1,.444-1.468c2.52.762,3.745,1.7,3.745,2.876,0,3.638-12.756,4.6-19.5,4.6" transform="translate(-37.254 -178.366)" fill="#5252c6"/>
    <path id="Path_3128" data-name="Path 3128" d="M65.672,38.886a19.38,19.38,0,0,1-15.114-7.21.767.767,0,0,1,1.192-.966,17.868,17.868,0,1,0-1.615-2.354.767.767,0,0,1-1.33.766,19.445,19.445,0,1,1,16.867,9.765" transform="translate(-37.627 0)" fill="#5252c6"/>
    <path id="Path_3129" data-name="Path 3129" d="M121.233,81.747a6.733,6.733,0,0,1-3.5-.977.767.767,0,1,1,.8-1.311,5.209,5.209,0,1,0-1.88-1.973.767.767,0,0,1-1.348.733,6.744,6.744,0,1,1,5.929,3.528" transform="translate(-93.188 -55.561)" fill="#5252c6"/>
    <path id="Path_3130" data-name="Path 3130" d="M91.817,59.055a13.346,13.346,0,0,1-9.769-4.2A.767.767,0,1,1,83.159,53.8a11.9,11.9,0,1,0-1.673-2.235.767.767,0,1,1-1.327.77,13.469,13.469,0,1,1,11.658,6.719" transform="translate(-63.772 -26.145)" fill="#5252c6"/>
    <path id="Path_3131" data-name="Path 3131" d="M84.978,196.864a3.011,3.011,0,0,1-2.6-4.514l2.5-4.33a.767.767,0,1,1,1.327.767l-2.5,4.33a1.476,1.476,0,0,0,.541,2.013,1.475,1.475,0,0,0,2.015-.539l1.362-2.231a.767.767,0,0,1,1.309.8l-1.353,2.214a3.021,3.021,0,0,1-2.6,1.489" transform="translate(-66.723 -152.727)" fill="#5252c6"/>
    <path id="Path_3132" data-name="Path 3132" d="M187.9,196.859a3.019,3.019,0,0,1-2.61-1.506l-1.345-2.2a.767.767,0,1,1,1.309-.8l1.354,2.214a1.477,1.477,0,0,0,.9.7,1.475,1.475,0,0,0,1.658-2.161l-2.5-4.33a.766.766,0,1,1,1.327-.767l2.5,4.33a3.011,3.011,0,0,1-2.6,4.514" transform="translate(-149.634 -152.722)" fill="#5252c6"/>
    <path id="Path_3133" data-name="Path 3133" d="M8.958,151.512a.76.76,0,0,1-.372-.1L4.776,149.3a.767.767,0,0,1-.012-1.335l4.529-2.615a.766.766,0,0,1,.755-.006l3.81,2.115a.766.766,0,0,1,.012,1.335l-4.529,2.614a.771.771,0,0,1-.383.1M6.7,148.618l2.246,1.246,2.98-1.72L9.684,146.9Z" transform="translate(-3.566 -118.226)" fill="#5252c6"/>
    <path id="Path_3134" data-name="Path 3134" d="M25.23,165.117a.767.767,0,0,1-.767-.78l.073-4.356a.767.767,0,0,1,.383-.652l4.529-2.614a.767.767,0,0,1,1.151.677l-.073,4.355a.766.766,0,0,1-.383.652l-4.529,2.615a.771.771,0,0,1-.383.1m.833-4.676-.043,2.567L29,161.288l.043-2.566Z" transform="translate(-19.911 -127.476)" fill="#5252c6"/>
    <path id="Path_3135" data-name="Path 3135" d="M15.189,116.123a.767.767,0,0,1-.383-1.431L39.391,100.5a.767.767,0,0,1,.767,1.329L15.572,116.02a.768.768,0,0,1-.383.1" transform="translate(-11.738 -81.717)" fill="#5252c6"/>
  </g>
</svg>
