<svg id="ic-team" xmlns="http://www.w3.org/2000/svg" xmlns:xlink="http://www.w3.org/1999/xlink" width="56.781" height="60.754" viewBox="0 0 56.781 60.754">
  <defs>
    <clipPath id="clip-path">
      <rect id="Rectangle_172" data-name="Rectangle 172" width="56.781" height="60.754" fill="#fff"/>
    </clipPath>
  </defs>
  <g id="Group_13262" data-name="Group 13262" clip-path="url(#clip-path)">
    <path id="Path_3104" data-name="Path 3104" d="M201.015,15.605a.579.579,0,0,1-.58-.58V.579a.58.58,0,0,1,1.159,0V15.026a.579.579,0,0,1-.58.58" transform="translate(-172.263 0.001)" fill="#fff"/>
    <path id="Path_3105" data-name="Path 3105" d="M209.683,18.661h-8.668a.579.579,0,0,1-.58-.58V10.858a.579.579,0,0,1,.58-.58h8.668a.579.579,0,0,1,.58.58v7.224a.579.579,0,0,1-.58.58M201.594,17.5h7.51V11.437h-7.51Z" transform="translate(-172.263 -8.833)" fill="#fff"/>
    <path id="Path_3106" data-name="Path 3106" d="M250.8,39.219H242.13a.579.579,0,0,1-.58-.579V35.75a.58.58,0,0,1,1.159,0v2.31h7.066l-1.641-2.734a.579.579,0,0,1,0-.6L249.774,32h-4.755a.58.58,0,0,1,0-1.159H250.8a.579.579,0,0,1,.5.878l-1.988,3.313,1.988,3.314a.579.579,0,0,1-.5.878" transform="translate(-207.599 -26.502)" fill="#fff"/>
    <path id="Path_3107" data-name="Path 3107" d="M229.962,155.929h-1.445a.579.579,0,1,1,0-1.159h.865V140.9c0-3.376-2.857-5.922-6.644-5.922h-1.445c-4.639,0-6.795-2.076-8.238-7.935l-.774-2.973a.58.58,0,0,1,1.122-.292l.775,2.98c1.471,5.97,3.549,7.061,7.114,7.061h1.445c4.449,0,7.8,3.044,7.8,7.081V155.35a.579.579,0,0,1-.579.58" transform="translate(-182.429 -106.011)" fill="#fff"/>
    <path id="Path_3108" data-name="Path 3108" d="M204.232,218.289a.579.579,0,0,1-.58-.58V191.96a21.707,21.707,0,0,1-5.323-7.885.58.58,0,0,1,1.091-.393,20.95,20.95,0,0,0,5.194,7.586.58.58,0,0,1,.2.436v26.005a.579.579,0,0,1-.579.58" transform="translate(-170.424 -157.535)" fill="#fff"/>
    <path id="Path_3109" data-name="Path 3109" d="M308.945,288.229a.579.579,0,0,1-.58-.58V265.255a.579.579,0,0,1,.58-.579h.722a.579.579,0,1,1,0,1.159h-.143v21.814a.579.579,0,0,1-.579.58" transform="translate(-265.023 -227.475)" fill="#fff"/>
    <path id="Path_3110" data-name="Path 3110" d="M272.967,350.068a.579.579,0,0,1-.579-.579V337.208a.579.579,0,1,1,1.159,0v12.281a.579.579,0,0,1-.579.579" transform="translate(-234.102 -289.313)" fill="#fff"/>
    <path id="Path_3111" data-name="Path 3111" d="M250.883,130.6c-2.507,0-4.191-1.974-4.191-4.914s1.684-4.914,4.191-4.914,4.192,1.975,4.192,4.914-1.685,4.914-4.192,4.914m0-8.668c-2.235,0-3.032,1.939-3.032,3.755s.8,3.755,3.032,3.755,3.033-1.939,3.033-3.755-.8-3.755-3.033-3.755" transform="translate(-212.018 -103.8)" fill="#fff"/>
    <path id="Path_3112" data-name="Path 3112" d="M76.887,152.387a.579.579,0,0,1-.58-.58V125.8a.581.581,0,0,1,.171-.412c.046-.046,4.639-4.643,5.772-9.678.812-3.607,1.383-6.284,1.383-6.284a1.429,1.429,0,0,0-.23-1.1,1.18,1.18,0,0,0-.792-.495,1.376,1.376,0,0,0-1.068.1,1.93,1.93,0,0,0-.658,1.279l-.817,3.451c-1.444,5.864-3.6,7.94-8.239,7.94H70.386c-3.788,0-6.644,2.546-6.644,5.922v13.867h.865a.58.58,0,1,1,0,1.159H63.163a.579.579,0,0,1-.58-.58V126.525c0-4.037,3.355-7.081,7.8-7.081h1.445c3.565,0,5.644-1.091,7.113-7.053l.811-3.427a2.968,2.968,0,0,1,1.153-2,2.448,2.448,0,0,1,1.909-.269,2.3,2.3,0,0,1,1.532.963,2.618,2.618,0,0,1,.422,2c0,.013-.575,2.694-1.388,6.31-1.093,4.859-5.028,9.153-5.915,10.072v25.768a.579.579,0,0,1-.579.58" transform="translate(-53.787 -91.633)" fill="#fff"/>
    <path id="Path_3113" data-name="Path 3113" d="M84.443,288.229a.579.579,0,0,1-.579-.58V265.835h-.143a.579.579,0,1,1,0-1.159h.722a.579.579,0,0,1,.58.579v22.394a.579.579,0,0,1-.58.58" transform="translate(-71.455 -227.475)" fill="#fff"/>
    <path id="Path_3114" data-name="Path 3114" d="M124.836,350.068a.579.579,0,0,1-.58-.579V337.208a.58.58,0,1,1,1.159,0v12.281a.579.579,0,0,1-.58.579" transform="translate(-106.791 -289.313)" fill="#fff"/>
    <path id="Path_3115" data-name="Path 3115" d="M102.749,130.6c-2.507,0-4.192-1.974-4.192-4.914s1.685-4.914,4.192-4.914,4.191,1.975,4.191,4.914-1.684,4.914-4.191,4.914m0-8.668c-2.236,0-3.033,1.939-3.033,3.755s.8,3.755,3.033,3.755,3.032-1.939,3.032-3.755-.8-3.755-3.032-3.755" transform="translate(-84.704 -103.8)" fill="#fff"/>
    <path id="Path_3116" data-name="Path 3116" d="M347.727,230.252h-1.445a.579.579,0,1,1,0-1.159h.865V214.5c0-4.524-3.71-5.2-5.922-5.2h-1.445a.58.58,0,0,1,0-1.159h1.445c4.434,0,7.081,2.377,7.081,6.359v15.169a.579.579,0,0,1-.579.579" transform="translate(-291.526 -178.889)" fill="#fff"/>
    <path id="Path_3117" data-name="Path 3117" d="M370.617,297.063a.579.579,0,0,1-.579-.579V275.534a.579.579,0,0,1,.579-.579h.722a.579.579,0,1,1,0,1.159H371.2v20.369a.579.579,0,0,1-.58.579" transform="translate(-318.027 -236.309)" fill="#fff"/>
    <path id="Path_3118" data-name="Path 3118" d="M334.639,380.989a.579.579,0,0,1-.579-.579v-7.224a.58.58,0,0,1,1.159,0v7.224a.579.579,0,0,1-.58.579" transform="translate(-287.106 -320.235)" fill="#fff"/>
    <path id="Path_3119" data-name="Path 3119" d="M321.375,144.576c-2.147,0-3.589-1.684-3.589-4.191s1.443-4.192,3.589-4.192,3.589,1.685,3.589,4.192-1.443,4.191-3.589,4.191m0-7.224c-1.792,0-2.43,1.566-2.43,3.033s.638,3.032,2.43,3.032,2.43-1.566,2.43-3.032-.638-3.033-2.43-3.033" transform="translate(-273.12 -117.05)" fill="#fff"/>
    <path id="Path_3120" data-name="Path 3120" d="M2.024,230.252H.58a.579.579,0,0,1-.58-.579V214.5c0-3.982,2.647-6.359,7.081-6.359H8.526a.58.58,0,0,1,0,1.159H7.081c-2.211,0-5.922.676-5.922,5.2v14.59h.865a.579.579,0,1,1,0,1.159" transform="translate(0 -178.889)" fill="#fff"/>
    <path id="Path_3121" data-name="Path 3121" d="M21.86,297.063a.579.579,0,0,1-.58-.579V276.114h-.143a.579.579,0,1,1,0-1.159h.723a.579.579,0,0,1,.58.579v20.949a.579.579,0,0,1-.58.579" transform="translate(-17.668 -236.309)" fill="#fff"/>
    <path id="Path_3122" data-name="Path 3122" d="M62.253,380.989a.579.579,0,0,1-.58-.579v-7.224a.58.58,0,0,1,1.159,0v7.224a.579.579,0,0,1-.58.579" transform="translate(-53.005 -320.235)" fill="#fff"/>
    <path id="Path_3123" data-name="Path 3123" d="M38.709,144.576c-2.147,0-3.589-1.684-3.589-4.191s1.443-4.192,3.589-4.192,3.589,1.685,3.589,4.192-1.443,4.191-3.589,4.191m0-7.224c-1.792,0-2.43,1.566-2.43,3.033s.638,3.032,2.43,3.032,2.43-1.566,2.43-3.032-.638-3.033-2.43-3.033" transform="translate(-30.184 -117.05)" fill="#fff"/>
  </g>
</svg>
